<svg width="26" height="26" viewBox="0 0 26 26" fill="none" xmlns="http://www.w3.org/2000/svg">
<g clip-path="url(#clip0_6566_91)">
<g clip-path="url(#clip1_6566_91)">
<mask id="mask0_6566_91" style="mask-type:luminance" maskUnits="userSpaceOnUse" x="0" y="0" width="25" height="25">
<path d="M24.5137 0.496521H0.513672V24.4965H24.5137V0.496521Z" fill="white"/>
</mask>
<g mask="url(#mask0_6566_91)">
<path d="M24.5136 3.49652H4.75567L4.71367 3.14552C4.62772 2.41594 4.27706 1.74326 3.72816 1.25499C3.17927 0.766744 2.4703 0.496863 1.73567 0.496521H0.513672V2.49652H1.73567C1.9806 2.49655 2.21701 2.58648 2.40004 2.74924C2.58308 2.912 2.70001 3.13627 2.72867 3.37953L4.31367 16.8475C4.39962 17.5771 4.75029 18.2498 5.29918 18.738C5.84808 19.2263 6.55704 19.4962 7.29167 19.4965H20.5136V17.4965H7.29167C7.04658 17.4965 6.81005 17.4064 6.627 17.2434C6.44394 17.0805 6.3271 16.8559 6.29867 16.6125L6.16767 15.4965H22.3496L24.5136 3.49652ZM20.6776 13.4965H5.93267L4.99167 5.49652H22.1206L20.6776 13.4965Z" fill="#253D4E"/>
<path d="M7.51367 24.4965C8.61824 24.4965 9.51367 23.6011 9.51367 22.4965C9.51367 21.3919 8.61824 20.4965 7.51367 20.4965C6.4091 20.4965 5.51367 21.3919 5.51367 22.4965C5.51367 23.6011 6.4091 24.4965 7.51367 24.4965Z" fill="#253D4E"/>
<path d="M17.5137 24.4965C18.6183 24.4965 19.5137 23.6011 19.5137 22.4965C19.5137 21.3919 18.6183 20.4965 17.5137 20.4965C16.4092 20.4965 15.5137 21.3919 15.5137 22.4965C15.5137 23.6011 16.4092 24.4965 17.5137 24.4965Z" fill="#253D4E"/>
</g>
</g>
</g>
<defs>
<clipPath id="clip0_6566_91">
<rect width="25" height="25" fill="white" transform="translate(0.0195312 0.130005)"/>
</clipPath>
<clipPath id="clip1_6566_91">
<rect width="25" height="25" fill="white" transform="translate(0.0195312 0.130005)"/>
</clipPath>
</defs>
</svg>
