<svg width="40" height="40" viewBox="0 0 40 40" fill="none" xmlns="http://www.w3.org/2000/svg">
<g clip-path="url(#clip0_904_329)">
<path d="M13.3334 25C13.3334 23.159 11.841 21.6666 10 21.6666C8.15907 21.6666 6.66669 23.159 6.66669 25V28.3333C6.66669 30.1742 8.15907 31.6666 10 31.6666C11.841 31.6666 13.3334 30.1742 13.3334 28.3333V25Z" stroke="white" stroke-width="2" stroke-linecap="round" stroke-linejoin="round"/>
<path d="M33.3334 25C33.3334 23.159 31.841 21.6666 30 21.6666C28.1591 21.6666 26.6667 23.159 26.6667 25V28.3333C26.6667 30.1742 28.1591 31.6666 30 31.6666C31.841 31.6666 33.3334 30.1742 33.3334 28.3333V25Z" stroke="white" stroke-width="2" stroke-linecap="round" stroke-linejoin="round"/>
<path d="M6.66669 25V20C6.66669 16.4637 8.07145 13.0724 10.5719 10.5719C13.0724 8.07138 16.4638 6.66663 20 6.66663C23.5362 6.66663 26.9276 8.07138 29.4281 10.5719C31.9286 13.0724 33.3334 16.4637 33.3334 20V25" stroke="white" stroke-width="2" stroke-linecap="round" stroke-linejoin="round"/>
<path d="M30 31.6666C30 32.9927 28.9464 34.2645 27.0711 35.2022C25.1957 36.1398 22.6522 36.6666 20 36.6666" stroke="white" stroke-width="2" stroke-linecap="round" stroke-linejoin="round"/>
</g>
<defs>
<clipPath id="clip0_904_329">
<rect width="40" height="40" fill="white"/>
</clipPath>
</defs>
</svg>
