<svg width="26" height="26" viewBox="0 0 26 26" fill="none" xmlns="http://www.w3.org/2000/svg">
<g clip-path="url(#clip0_6566_80)">
<g clip-path="url(#clip1_6566_80)">
<mask id="mask0_6566_80" style="mask-type:luminance" maskUnits="userSpaceOnUse" x="1" y="0" width="25" height="25">
<path d="M25.4453 0.496521H1.44531V24.4965H25.4453V0.496521Z" fill="white"/>
</mask>
<g mask="url(#mask0_6566_80)">
<path d="M18.9442 1.41351C17.8182 1.43102 16.7167 1.74536 15.751 2.32478C14.7853 2.9042 13.9896 3.72818 13.4442 4.71351C12.8989 3.72818 12.1032 2.9042 11.1375 2.32478C10.1718 1.74536 9.07035 1.43102 7.9443 1.41351C6.14924 1.4915 4.458 2.27676 3.24008 3.59774C2.02216 4.91872 1.37654 6.66803 1.44429 8.46351C1.44429 15.2385 12.4002 23.0635 12.8662 23.3955L13.4442 23.8045L14.0222 23.3955C14.4882 23.0655 25.4442 15.2385 25.4442 8.46351C25.512 6.66803 24.8664 4.91872 23.6485 3.59774C22.4305 2.27676 20.7393 1.4915 18.9442 1.41351ZM13.4442 21.3425C10.1913 18.9125 3.4443 12.9425 3.4443 8.46351C3.37594 7.19822 3.81067 5.95724 4.65366 5.01121C5.49666 4.06518 6.67953 3.49086 7.9443 3.41351C9.20907 3.49086 10.3919 4.06518 11.2349 5.01121C12.0779 5.95724 12.5126 7.19822 12.4442 8.46351H14.4442C14.3759 7.19822 14.8106 5.95724 15.6536 5.01121C16.4966 4.06518 17.6795 3.49086 18.9442 3.41351C20.209 3.49086 21.3919 4.06518 22.2349 5.01121C23.0779 5.95724 23.5126 7.19822 23.4442 8.46351C23.4442 12.9445 16.6972 18.9125 13.4442 21.3425Z" fill="#253D4E"/>
</g>
</g>
</g>
<defs>
<clipPath id="clip0_6566_80">
<rect width="25" height="25" fill="white" transform="translate(0.669922 0.130005)"/>
</clipPath>
<clipPath id="clip1_6566_80">
<rect width="25" height="25" fill="white" transform="translate(0.669922 0.130005)"/>
</clipPath>
</defs>
</svg>
