<svg width="14" height="36" viewBox="0 0 14 36" fill="none" xmlns="http://www.w3.org/2000/svg">
<g clip-path="url(#clip0_6566_61)">
<path d="M5.88 24.63L5.46 24.3033C4.43333 23.4322 3.45333 22.4522 2.52 21.3633C0.84 19.4033 0 17.77 0 16.4633C0 15.4056 0.264444 14.4256 0.793333 13.5233C1.32222 12.6211 2.03778 11.9056 2.94 11.3767C3.84222 10.8478 4.82222 10.5833 5.88 10.5833C6.93778 10.5833 7.91778 10.8478 8.82 11.3767C9.72222 11.9056 10.4378 12.6211 10.9667 13.5233C11.4956 14.4256 11.76 15.4056 11.76 16.4633C11.76 17.77 10.92 19.4033 9.24 21.3633C8.33778 22.4211 7.35778 23.4011 6.3 24.3033L5.88 24.63ZM5.88 11.8433C5.04 11.8433 4.27 12.0533 3.57 12.4733C2.87 12.8933 2.31 13.4533 1.89 14.1533C1.47 14.8533 1.26 15.6311 1.26 16.4867C1.26 17.3422 1.83556 18.4856 2.98667 19.9167C3.79556 20.9433 4.76 21.9544 5.88 22.95C7 21.9544 7.96444 20.9433 8.77333 19.9167C9.92444 18.4856 10.5 17.3422 10.5 16.4867C10.5 15.6311 10.29 14.8533 9.87 14.1533C9.45 13.4533 8.89 12.8933 8.19 12.4733C7.49 12.0533 6.72 11.8433 5.88 11.8433ZM5.88 18.7967C5.22667 18.7967 4.67444 18.5711 4.22333 18.12C3.77222 17.6689 3.54667 17.1167 3.54667 16.4633C3.54667 15.81 3.77222 15.2578 4.22333 14.8067C4.67444 14.3556 5.22667 14.13 5.88 14.13C6.53333 14.13 7.08556 14.3556 7.53667 14.8067C7.98778 15.2578 8.21333 15.81 8.21333 16.4633C8.21333 17.1167 7.98778 17.6689 7.53667 18.12C7.08556 18.5711 6.53333 18.7967 5.88 18.7967ZM5.88 15.2967C5.56889 15.2967 5.29667 15.4133 5.06333 15.6467C4.83 15.88 4.71333 16.1522 4.71333 16.4633C4.71333 16.7744 4.83 17.0467 5.06333 17.28C5.29667 17.5133 5.56889 17.63 5.88 17.63C6.19111 17.63 6.46333 17.5133 6.69667 17.28C6.93 17.0467 7.04667 16.7744 7.04667 16.4633C7.04667 16.1522 6.93 15.88 6.69667 15.6467C6.46333 15.4133 6.19111 15.2967 5.88 15.2967Z" fill="#B6B6B6"/>
</g>
<defs>
<clipPath id="clip0_6566_61">
<rect width="14" height="35" fill="white" transform="matrix(1 0 0 -1 0 35.13)"/>
</clipPath>
</defs>
</svg>
