<svg width="72" height="55" viewBox="0 0 72 55" fill="none" xmlns="http://www.w3.org/2000/svg">
<g clip-path="url(#clip0_6566_24)">
<g clip-path="url(#clip1_6566_24)">
<g clip-path="url(#clip2_6566_24)">
<mask id="mask0_6566_24" style="mask-type:luminance" maskUnits="userSpaceOnUse" x="0" y="5" width="66" height="51">
<path d="M65.3053 5.02271H0.00976562V55.25H65.3053V5.02271Z" fill="white"/>
</mask>
<g mask="url(#mask0_6566_24)">
<path opacity="0.8" d="M48.9359 38.4578C55.1528 39.1017 60.9408 32.4 61.8637 23.4891C62.7866 14.5782 58.495 6.83249 52.2781 6.18859C46.0613 5.54469 40.2733 12.2464 39.3504 21.1573C38.4275 30.0682 42.719 37.8139 48.9359 38.4578Z" fill="#FDC040"/>
<path d="M39.6178 42.7295C45.5327 40.71 47.9812 32.2001 45.0866 23.7221C42.192 15.244 35.0505 10.0083 29.1356 12.0278C23.2208 14.0472 20.7723 22.5571 23.6669 31.0352C26.5614 39.5132 33.7029 44.7489 39.6178 42.7295Z" fill="#FDC040"/>
<path d="M22.6117 32.6477H62.8529C63.1741 32.7873 63.9128 33.3174 64.2981 34.3219C64.7799 35.5776 66.142 53.9943 43.1212 50.2272C25.0079 50.2272 20.7813 49.6691 20.9419 49.3901C24.286 48.553 24.7045 45.2045 25.1231 42.6932C25.5417 40.1818 22.6117 32.6477 22.6117 32.6477Z" fill="#81B13D"/>
<path d="M52.8471 15.4301C52.3187 15.4301 51.8906 15.8583 51.8906 16.3865V16.5393C51.8906 17.0677 52.3187 17.4958 52.8471 17.4958C53.3755 17.4958 53.8036 17.0677 53.8036 16.5393V16.3865C53.8036 15.8582 53.3755 15.4301 52.8471 15.4301Z" fill="#253D4E"/>
<path d="M55.3315 19.6973C54.8032 19.6973 54.375 20.1254 54.375 20.6537V20.8065C54.375 21.3348 54.8032 21.763 55.3315 21.763C55.8599 21.763 56.288 21.3349 56.288 20.8065V20.6537C56.288 20.1254 55.8599 19.6973 55.3315 19.6973Z" fill="#253D4E"/>
<path d="M34.3871 18.7991L34.3162 18.6635C34.0718 18.1951 33.4937 18.0136 33.0258 18.2582C32.5575 18.5027 32.3761 19.0804 32.6205 19.5487L32.6913 19.6843C32.8617 20.0112 33.195 20.1985 33.5399 20.1985C33.6891 20.1985 33.8403 20.1635 33.9817 20.0896C34.45 19.8451 34.6315 19.2674 34.3871 18.7991Z" fill="#253D4E"/>
<path d="M38.5648 21.4316L38.494 21.2961C38.2495 20.8277 37.6716 20.6462 37.2036 20.8908C36.7352 21.1353 36.5538 21.713 36.7982 22.1813L36.869 22.3169C37.0395 22.6439 37.3727 22.8311 37.7176 22.8311C37.8668 22.8311 38.0181 22.7962 38.1595 22.7222C38.6278 22.4777 38.8092 21.8999 38.5648 21.4316Z" fill="#253D4E"/>
<path d="M32.6125 40.4614L29.7676 37.6162C29.394 37.2427 28.7883 37.2426 28.4151 37.6162C28.0414 37.9897 28.0414 38.5953 28.4149 38.9687L31.2598 41.8138C31.4467 42.0007 31.6913 42.094 31.9362 42.094C32.1808 42.094 32.4257 42.0007 32.6125 41.814C32.9861 41.4404 32.9861 40.8348 32.6125 40.4614Z" fill="#253D4E"/>
<path d="M41.0669 38.6788C40.7607 38.2486 40.1637 38.1478 39.7331 38.4543L29.8041 45.5232C29.3739 45.8295 29.2733 46.4267 29.5797 46.857C29.7662 47.1192 30.0606 47.2588 30.3597 47.2588C30.5514 47.2588 30.7453 47.2012 30.9135 47.0815L40.8424 40.0126C41.2727 39.7063 41.3732 39.1091 41.0669 38.6788Z" fill="#253D4E"/>
<path d="M44.5762 40.1215C44.2701 39.6913 43.6729 39.5906 43.2423 39.8971L39.4311 42.6105C39.0007 42.917 38.9004 43.5141 39.2067 43.9444C39.3932 44.2066 39.6876 44.3463 39.9866 44.3463C40.1785 44.3463 40.3722 44.2886 40.5405 44.1688L44.3518 41.4554C44.7821 41.1491 44.8825 40.5519 44.5762 40.1215Z" fill="#253D4E"/>
<path d="M65.1246 35.7817C64.8155 35.3532 64.2178 35.2565 63.7892 35.5652L63.4706 35.795C63.472 35.7129 63.4738 35.631 63.4738 35.5488C63.4738 34.6364 63.1188 33.7778 62.4722 33.1295C61.8258 32.4846 60.9671 32.1296 60.0547 32.1296H59.7716C60.8213 30.1014 61.3543 27.6592 61.3543 24.8399C61.3543 19.3108 59.2817 13.2671 56.0742 9.44313C55.7345 9.0383 55.1313 8.98531 54.7266 9.32501C54.322 9.66455 54.2691 10.2679 54.6085 10.6725C57.5444 14.1724 59.4415 19.7336 59.4415 24.8399C59.4415 27.7827 58.8089 30.232 57.5613 32.1296H55.6676L56.5089 31.5306C56.9394 31.2243 57.0398 30.627 56.7335 30.1967C56.4272 29.7664 55.8303 29.6657 55.3996 29.9723L52.3695 32.1296H46.6801C47.2534 29.2253 46.6562 25.9807 44.9234 22.6616C43.6831 20.2864 41.9215 17.9882 39.8952 16.0411C41.9823 10.7619 45.4363 7.38477 48.8019 7.38477C49.8183 7.38477 50.8426 7.6805 51.8462 8.26409C52.3029 8.52933 52.8884 8.37438 53.1539 7.91784C53.4193 7.46115 53.2644 6.87566 52.8077 6.61014C51.5082 5.85478 50.1605 5.4718 48.8019 5.4718C44.7302 5.4718 40.815 8.97049 38.3806 14.6928C37.5514 14.0105 36.6921 13.3902 35.8167 12.8496C31.6963 10.3049 27.7946 9.75571 24.8307 11.303C22.0968 12.7318 20.3457 15.8998 19.8996 20.2234C19.8453 20.7489 20.2274 21.2188 20.7527 21.2729C21.2795 21.328 21.7482 20.945 21.8022 20.4197C22.1804 16.7556 23.5704 14.12 25.7161 12.9986C30.9403 10.2712 39.568 16.5393 43.2277 23.547C44.8554 26.6649 45.3561 29.5481 44.7225 32.1297H33.9985C33.9958 32.1297 33.9933 32.1297 33.9906 32.1297H29.0894L27.4841 30.5245C27.1104 30.1511 26.5049 30.1511 26.1314 30.5245C25.7579 30.8981 25.7579 31.5037 26.1314 31.8772L26.3838 32.1296H23.7579C22.6925 29.7082 21.9921 26.9276 21.7749 24.2302C21.7326 23.7037 21.2719 23.31 20.7449 23.3536C20.2183 23.3959 19.8259 23.857 19.8682 24.3836C20.0446 26.5757 20.4971 28.7568 21.1954 30.8153C18.4693 28.4922 14.9085 27.2438 11.2424 27.443C10.9007 27.4616 10.5948 27.6614 10.4407 27.9669C9.00224 30.815 8.59782 34.0298 9.19436 37.0742C9.19997 37.1666 9.21821 37.2552 9.2481 37.3384C9.43553 38.2071 9.70592 39.0601 10.0568 39.8856C5.96288 40.5206 2.32736 42.9337 0.148241 46.5282C-0.0291545 46.8208 -0.0365513 47.1859 0.128602 47.4857C1.66981 50.2828 4.09915 52.4317 6.95317 53.6562C7.0293 53.7008 7.10875 53.7346 7.1905 53.7563C8.76667 54.3989 10.4663 54.762 12.2141 54.7981C12.3099 54.8001 12.4046 54.801 12.5001 54.801C13.1805 54.801 13.8545 54.7496 14.5185 54.6531C14.5811 54.6494 14.6432 54.6413 14.7035 54.6257C17.5148 54.1784 20.1284 52.8875 22.1918 50.9478C22.2386 50.9548 22.2861 50.9597 22.3348 50.9597H26.6267C27.155 50.9597 27.5832 50.5316 27.5832 50.0032C27.5832 49.4749 27.155 49.0467 26.6267 49.0467H23.8805C24.1314 48.7065 24.3693 48.3544 24.5907 47.989C24.5975 47.9778 24.6029 47.9661 24.6092 47.9548C24.6149 47.9444 24.6218 47.9351 24.6272 47.9243C26.855 43.5107 26.6029 38.2172 23.9852 34.0425H28.2967L30.9008 36.6466C31.0876 36.8333 31.3324 36.9267 31.5772 36.9267C31.8219 36.9267 32.0668 36.8333 32.2536 36.6466C32.6271 36.2729 32.6271 35.6675 32.2536 35.2939L31.0023 34.0425H33.5984L37.1494 37.5935C37.3363 37.7803 37.5811 37.8736 37.8258 37.8736C38.0706 37.8736 38.3155 37.7803 38.5023 37.5935C38.8758 37.2199 38.8758 36.6143 38.5023 36.2408L36.3041 34.0427H45.441L45.4441 34.0429L45.4473 34.0427H49.6828L47.5946 35.5293C47.1642 35.8356 47.0638 36.4328 47.3701 36.8631C47.5567 37.1254 47.851 37.265 48.1501 37.265C48.3419 37.265 48.5356 37.2073 48.704 37.0875L52.9808 34.0425H58.0596L58.0613 34.0427L58.0635 34.0425H60.0554C60.4577 34.0425 60.8366 34.1993 61.1202 34.482C61.4048 34.7673 61.5615 35.1462 61.5615 35.5487C61.5615 36.1245 61.5251 36.6918 61.4547 37.2489L54.4316 42.3129C54.0033 42.6219 53.9063 43.2197 54.2152 43.6483C54.4023 43.9076 54.695 44.0455 54.9919 44.0455C55.1857 44.0455 55.3814 43.9867 55.5506 43.8647L60.771 40.1007C59.728 43.003 57.7176 45.4475 55.1303 47.0439L44.4636 36.3773C44.0899 36.0038 43.4844 36.0038 43.1108 36.3773C42.7373 36.7509 42.7373 37.3564 43.1108 37.73L53.3489 47.968C51.9625 48.5603 50.4576 48.9265 48.8805 49.021L44.7106 44.8513C44.3372 44.4779 43.7315 44.4777 43.358 44.8514C42.9845 45.225 42.9845 45.8305 43.3581 46.2041L46.2006 49.0464H36.8369L35.3022 47.5119C34.9286 47.1384 34.3231 47.1384 33.9495 47.5119C33.576 47.8855 33.576 48.4911 33.9495 48.8646L34.1314 49.0464H30.6117C30.0833 49.0464 29.6552 49.4746 29.6552 50.0029C29.6552 50.5313 30.0833 50.9594 30.6117 50.9594H36.0435L38.2008 53.1167C38.3876 53.3034 38.6325 53.3968 38.8773 53.3968C39.1219 53.3968 39.3668 53.3034 39.5536 53.1167C39.9272 52.7431 39.9272 52.1376 39.5536 51.764L38.749 50.9594H48.0617C50.4731 50.9594 52.7566 50.4022 54.791 49.4108L55.5945 50.2143C55.7813 50.401 56.0262 50.4943 56.2709 50.4943C56.5156 50.4943 56.7605 50.401 56.9473 50.2143C57.3209 49.8406 57.3209 49.2351 56.9473 48.8615L56.5142 48.4285C59.9627 46.1581 62.4497 42.5421 63.2212 38.3334L64.9083 37.1169C65.3366 36.808 65.4335 36.2103 65.1246 35.7817ZM22.2436 34.867C22.3509 35.0312 22.4523 35.1981 22.551 35.3663L20.1299 40.1705L17.3654 35.9404L19.3002 31.7501C20.4428 32.5966 21.4451 33.6453 22.2436 34.867ZM19.0825 42.0645L13.8095 42.33C13.454 41.92 13.1234 41.4846 12.8224 41.0239C12.1934 40.0615 11.7135 39.0265 11.3829 37.9529L16.3426 37.8719L19.0825 42.0645ZM17.6653 30.7274L16.1307 34.0508L13.0806 29.3837C14.6935 29.5269 16.2507 29.9899 17.6653 30.7274ZM11.4787 30.4291L15.1056 35.9789L10.9583 36.0466C10.6958 34.174 10.8664 32.2471 11.4787 30.4291ZM10.9843 41.6949C11.0612 41.8208 11.1399 41.9461 11.2209 42.0703C11.646 42.7206 12.1212 43.3278 12.6385 43.8903C12.6763 43.9395 12.7187 43.9846 12.765 44.0255C13.6242 44.9355 14.596 45.7224 15.6509 46.37L10.6186 46.2665L8.24594 42.2983C9.12454 41.9948 10.0424 41.7907 10.9843 41.6949ZM6.47798 43.0689L8.36187 46.22L2.7852 46.1054C3.81284 44.8502 5.07017 43.8216 6.47798 43.0689ZM7.09178 51.6165C5.39754 50.7767 3.90276 49.5488 2.74732 48.0178L9.37551 48.1541L7.09178 51.6165ZM13.8882 52.8072C13.3491 52.8695 12.803 52.8965 12.2529 52.8856C11.1035 52.8618 9.97807 52.6741 8.90538 52.3413L11.6365 48.2005L16.6437 48.3035L13.8882 52.8072ZM16.4963 52.2097L18.8584 48.3491L21.7619 48.4088C21.8216 48.4143 21.8815 48.4182 21.9414 48.4229C20.502 50.1702 18.609 51.4754 16.4963 52.2097ZM21.8736 46.4979C19.6544 46.2804 17.5445 45.4575 15.7725 44.1466L20.2942 43.9188L21.981 46.5001L21.8736 46.4979ZM23.5878 45.4619L21.3393 42.0213L23.5711 37.5928C24.4348 40.128 24.4491 42.9028 23.5878 45.4619Z" fill="#253D4E"/>
<path d="M55.7375 37.4215C55.4285 36.993 54.8307 36.8964 54.4023 37.2052L51.0318 39.6356C50.6034 39.9445 50.5065 40.5422 50.8155 40.9708C51.0025 41.2301 51.2952 41.3679 51.592 41.3679C51.786 41.3679 51.9816 41.3092 52.1507 41.1871L55.5213 38.7568C55.9497 38.4479 56.0466 37.8501 55.7375 37.4215Z" fill="#253D4E"/>
</g>
</g>
</g>
</g>
<defs>
<clipPath id="clip0_6566_24">
<rect width="72" height="55" fill="white"/>
</clipPath>
<clipPath id="clip1_6566_24">
<rect width="180" height="55.25" fill="white"/>
</clipPath>
<clipPath id="clip2_6566_24">
<rect width="179.981" height="55.25" fill="white" transform="translate(0.00976562)"/>
</clipPath>
</defs>
</svg>
