<svg width="26" height="26" viewBox="0 0 26 26" fill="none" xmlns="http://www.w3.org/2000/svg">
<g clip-path="url(#clip0_6566_105)">
<mask id="mask0_6566_105" style="mask-type:luminance" maskUnits="userSpaceOnUse" x="0" y="0" width="25" height="25">
<path d="M24.9648 0.496521H0.964844V24.4965H24.9648V0.496521Z" fill="white"/>
</mask>
<g mask="url(#mask0_6566_105)">
<path d="M21.9648 24.4965H19.9648V19.4535C19.964 18.6695 19.6522 17.9179 19.0979 17.3635C18.5435 16.8091 17.7918 16.4973 17.0078 16.4965H8.92184C8.13783 16.4973 7.38617 16.8091 6.8318 17.3635C6.27743 17.9179 5.96563 18.6695 5.96484 19.4535V24.4965H3.96484V19.4535C3.96642 18.1393 4.48919 16.8794 5.41846 15.9501C6.34773 15.0209 7.60764 14.4981 8.92184 14.4965H17.0078C18.322 14.4981 19.5819 15.0209 20.5112 15.9501C21.4405 16.8794 21.9632 18.1393 21.9648 19.4535V24.4965Z" fill="#253D4E"/>
<path d="M12.9648 12.4965C11.7782 12.4965 10.6181 12.1446 9.63142 11.4853C8.64472 10.826 7.87569 9.88898 7.42156 8.79262C6.96744 7.69626 6.84862 6.48986 7.08013 5.32598C7.31164 4.1621 7.88308 3.09299 8.7222 2.25388C9.56131 1.41476 10.6304 0.843323 11.7943 0.611812C12.9582 0.380301 14.1646 0.499121 15.2609 0.953247C16.3573 1.40737 17.2944 2.1764 17.9537 3.1631C18.6129 4.14979 18.9648 5.30983 18.9648 6.49652C18.9632 8.08733 18.3306 9.61253 17.2057 10.7374C16.0809 11.8623 14.5557 12.4949 12.9648 12.4965ZM12.9648 2.49652C12.1737 2.49652 11.4004 2.73112 10.7426 3.17064C10.0848 3.61017 9.57207 4.23488 9.26932 4.9658C8.96657 5.69669 8.88736 6.50097 9.0417 7.27689C9.19604 8.0528 9.577 8.76554 10.1364 9.32495C10.6958 9.88437 11.4086 10.2653 12.1845 10.4197C12.9604 10.574 13.7647 10.4948 14.4956 10.192C15.2265 9.8893 15.8512 9.37661 16.2907 8.71881C16.7302 8.06101 16.9648 7.28764 16.9648 6.49652C16.9648 5.43565 16.5434 4.41824 15.7933 3.66809C15.0431 2.91795 14.0257 2.49652 12.9648 2.49652Z" fill="#253D4E"/>
</g>
</g>
<defs>
<clipPath id="clip0_6566_105">
<rect width="25" height="25" fill="white" transform="translate(0.519531 0.130005)"/>
</clipPath>
</defs>
</svg>
